<svg width="292" height="28" viewBox="0 0 292 28" fill="none" xmlns="http://www.w3.org/2000/svg">
<path d="M1.1859 23H11.5539V22.456L8.2259 22.04C7.2659 21.912 6.5619 21.176 6.5619 20.184V4.856L19.7459 23H21.1859V3.352C21.1859 2.39199 21.8579 1.592 22.8179 1.46399L25.2499 1.144V0.599995H14.8819V1.144L18.2099 1.56C19.1699 1.688 19.8739 2.424 19.8739 3.41599V17.688L10.3059 4.248C7.6499 0.535995 5.0259 0.599995 0.545898 0.599995V1.144C2.4979 1.432 4.4179 2.168 5.2499 3.64V20.248C5.2499 21.208 4.5779 22.008 3.6179 22.136L1.1859 22.456V23Z" fill="white"/>
<path d="M43.2889 23.512C50.2009 23.512 55.2249 18.776 55.2249 11.8C55.2249 4.824 50.2009 0.119995 43.2889 0.119995C36.3769 0.119995 31.3209 4.824 31.3209 11.8C31.3209 18.776 36.3769 23.512 43.2889 23.512ZM43.3209 22.392C37.5609 22.392 35.2249 17.304 35.2249 11.064C35.2249 5.24 37.6889 1.24 43.2569 1.24C48.8889 1.24 51.2889 6.23199 51.2889 12.28C51.2889 18.296 49.1129 22.392 43.3209 22.392Z" fill="white"/>
<path d="M72.2757 12.184H72.5316C75.8276 21.304 81.7156 25.4 84.9476 27.416C80.4036 21.208 78.2596 17.112 76.2116 11.896C80.0836 11.192 82.0996 9.368 82.0996 6.23199C82.0996 2.2 78.5797 0.599995 71.9557 0.599995H61.9396V1.144L63.9876 1.4C64.9476 1.528 65.6516 2.264 65.6516 3.25599V20.344C65.6516 21.336 64.9476 22.072 63.9876 22.2L61.9396 22.456V23H73.0757V22.456L71.0276 22.2C70.0676 22.072 69.3636 21.336 69.3636 20.344V12.184H72.2757ZM69.3636 1.72H72.7556C76.9796 1.72 78.7076 3.224 78.7076 6.39199C78.7076 9.56 76.7557 11.064 72.2437 11.064H69.3636V1.72Z" fill="white"/>
<path d="M91.0271 23H101.971C109.907 23 114.995 18.968 114.995 11.864C114.995 4.40799 109.907 0.599995 101.971 0.599995H91.0271V1.144L93.0751 1.4C94.0351 1.528 94.7391 2.264 94.7391 3.25599V20.344C94.7391 21.336 94.0351 22.072 93.0751 22.2L91.0271 22.456V23ZM100.115 21.88C99.1551 21.88 98.4511 21.336 98.4511 20.344V1.72H101.459C106.195 1.72 111.123 3.73599 111.123 11.864C111.123 19.384 106.771 21.88 101.459 21.88H100.115Z" fill="white"/>
<path d="M122.021 23H133.157V22.456L131.109 22.2C130.149 22.072 129.445 21.336 129.445 20.344V3.25599C129.445 2.264 130.149 1.528 131.109 1.4L133.157 1.144V0.599995H122.021V1.144L124.069 1.4C125.029 1.528 125.733 2.264 125.733 3.25599V20.344C125.733 21.336 125.029 22.072 124.069 22.2L122.021 22.456V23Z" fill="white"/>
<path d="M152.154 23.48C155.866 23.48 159.834 22.072 162.426 19.64V17.72C159.93 20.056 156.506 21.24 153.114 21.24C148.218 21.24 144.218 17.816 144.218 11.8C144.218 5.49599 146.97 1.24 152.154 1.24C156.826 1.24 159.29 5.17599 158.714 12.088H159.578L161.498 3.54399C159.674 1.46399 154.714 0.119995 152.154 0.119995C144.922 0.119995 140.186 4.824 140.186 11.8C140.186 18.808 144.986 23.48 152.154 23.48Z" fill="white"/>
<path d="M193.901 12.184H194.157C197.453 21.304 203.341 25.4 206.573 27.416C202.029 21.208 199.885 17.112 197.837 11.896C201.709 11.192 203.725 9.368 203.725 6.23199C203.725 2.2 200.205 0.599995 193.581 0.599995H183.565V1.144L185.613 1.4C186.573 1.528 187.277 2.264 187.277 3.25599V20.344C187.277 21.336 186.573 22.072 185.613 22.2L183.565 22.456V23H194.701V22.456L192.653 22.2C191.693 22.072 190.989 21.336 190.989 20.344V12.184H193.901ZM190.989 1.72H194.381C198.605 1.72 200.333 3.224 200.333 6.39199C200.333 9.56 198.381 11.064 193.869 11.064H190.989V1.72Z" fill="white"/>
<path d="M224.276 23.512C231.188 23.512 236.212 18.776 236.212 11.8C236.212 4.824 231.188 0.119995 224.276 0.119995C217.364 0.119995 212.308 4.824 212.308 11.8C212.308 18.776 217.364 23.512 224.276 23.512ZM224.308 22.392C218.548 22.392 216.212 17.304 216.212 11.064C216.212 5.24 218.676 1.24 224.244 1.24C229.876 1.24 232.276 6.23199 232.276 12.28C232.276 18.296 230.1 22.392 224.308 22.392Z" fill="white"/>
<path d="M253.569 23.48C258.369 23.48 261.761 21.048 261.761 17.528C261.761 8.696 248.737 9.592 248.737 5.17599C248.737 2.904 250.817 1.24 254.241 1.24C257.857 1.24 259.553 3.63999 259.905 8.91999H260.769L261.089 1.65599C259.201 0.823996 256.801 0.119995 254.241 0.119995C249.249 0.119995 246.145 2.35999 246.145 5.49599C246.145 14.104 259.201 12.888 259.201 18.008C259.201 20.568 256.833 22.36 253.889 22.36C250.081 22.36 248.161 19.736 247.457 13.816H246.593L245.953 21.4C248.161 22.616 250.209 23.48 253.569 23.48Z" fill="white"/>
<path d="M269.765 23H290.501L291.461 15.448H290.917C288.965 20.504 287.269 21.88 284.421 21.88H278.853C277.893 21.88 277.189 21.336 277.189 20.344V12.184H284.581C285.445 12.184 286.309 12.792 286.373 13.624L286.725 17.368H287.269V6.2H286.725L286.373 9.624C286.277 10.488 285.445 11.064 284.581 11.064H277.189V1.72H283.781C286.149 1.72 288.549 2.83999 289.829 8.18399H290.373L289.733 0.599995H269.765V1.144L271.813 1.4C272.773 1.528 273.477 2.264 273.477 3.25599V20.344C273.477 21.336 272.773 22.072 271.813 22.2L269.765 22.456V23Z" fill="white"/>
</svg>
